<mxfile host="app.diagrams.net" modified="2023-10-19T07:35:16.834Z" agent="Mozilla/5.0 (X11; Linux x86_64) AppleWebKit/537.36 (KHTML, like Gecko) Chrome/116.0.0.0 Safari/537.36" version="22.0.5" etag="H4wjGNcXBhXkINXvJJg6" type="github">
  <diagram name="Page-1" id="jDGnJHKOb2B5I_lH2_QE">
    <mxGraphModel>
      <root>
        <mxCell id="0" />
        <mxCell id="1" parent="0" />
      </root>
    </mxGraphModel>
  </diagram>
</mxfile>
